#!OML:ASF H:\Terrain\Patient Classification 1\Terrain2\Thursday\justin.ASF
:FULLY-SPECIFIED
:DEGREES
3173
root 31.0144 17.9957 -6.82226 1080.19 -166.628 -354.985
lowerback 7.6346 0.00676195 4.85192
upperback 3.16571 0.0282889 3.62688
thorax -0.988801 -0.135246 1.02079
lowerneck -12.9501 1.70653 -9.58796
upperneck 38.8366 -0.427699 4.07317
head 15.9429 -2.39877 3.03082
rclavicle 1.2921e-014 1.51076e-014
rhumerus -27.7541 -11.0441 -75.5475
rradius 28.4645
rwrist -11.0715
rhand -22.541 12.8298
rfingers 7.12502
rthumb 3.88633 -17.1146
lclavicle 1.2921e-014 1.51076e-014
lhumerus -35.8869 5.34613 86.6997
lradius 31.2718
lwrist 3.87921
lhand -17.8062 22.0748
lfingers 7.12502
lthumb 8.45734 51.8854
rfemur -13.4514 -4.37354 25.7749
rtibia 25.4511
rfoot -9.61958 1.29398
rtoes 13.4799
lfemur -15.8792 3.74565 -13.3833
ltibia 50.0989
lfoot -15.1386 -2.11285
ltoes -16.1776
3174
root 31.0084 17.9814 -6.86737 1080.37 -166.478 -355.249
lowerback 7.53925 -0.00556716 4.73788
upperback 3.22347 -0.00292744 3.55678
thorax -0.877632 -0.146913 1.01359
lowerneck -13.0831 1.77192 -9.64581
upperneck 38.8552 -0.208625 3.93111
head 15.9657 -2.32699 3.01802
rclavicle -2.26615e-014 5.56597e-015
rhumerus -27.3211 -10.8711 -75.5487
rradius 28.5883
rwrist -11.0727
rhand -22.6011 13.4923
rfingers 7.12502
rthumb 3.82831 -16.4531
lclavicle -2.26615e-014 5.56597e-015
lhumerus -35.8191 6.19197 86.2645
lradius 31.238
lwrist 2.5761
lhand -15.8571 21.0443
lfingers 7.12502
lthumb 10.338 50.7702
rfemur -13.6969 -4.4808 25.4691
rtibia 26.0036
rfoot -9.44192 1.25479
rtoes 16.8314
lfemur -16.1135 4.37354 -13.9683
ltibia 48.7636
lfoot -16.0477 -2.04697
ltoes -18.5255
3175
root 31.007 17.9659 -6.90926 1080.53 -166.334 -355.143
lowerback 7.39852 0.0377398 4.93897
upperback 3.23683 0.0541844 3.58174
thorax -0.783323 -0.116717 0.921879
lowerneck -13.1173 1.7815 -9.71835
upperneck 38.92 -0.158586 3.90341
head 16.0037 -2.32203 3.02905
rclavicle -3.18055e-014 -3.81667e-014
rhumerus -27.0244 -10.6184 -75.5651
rradius 29.0155
rwrist -11.3134
rhand -22.7085 13.2864
rfingers 7.12502
rthumb 3.72458 -16.6608
lclavicle -3.18055e-014 -3.81667e-014
lhumerus -35.7429 7.13522 85.6641
lradius 31.0005
lwrist 0.59227
lhand -13.4078 18.5514
lfingers 7.12502
lthumb 12.7001 48.1453
rfemur -14.0434 -4.54003 25.6127
rtibia 26.606
rfoot -10.353 1.25967
rtoes 14.6069
lfemur -16.4989 5.08446 -14.1471
ltibia 47.4068
lfoot -16.7727 -1.92971
ltoes -21.4711
3176
root 31.0087 17.9494 -6.94956 1080.52 -166.29 -354.733
lowerback 7.40991 0.0961183 5.33089
upperback 3.23469 0.145181 3.70071
thorax -0.78607 -0.0757563 0.819577
lowerneck -13.0945 1.76259 -9.74362
upperneck 38.8903 -0.141355 3.83539
head 15.9827 -2.32162 3.00694
rclavicle 1.94809e-014 1.03368e-014
rhumerus -26.7089 -10.3525 -75.6256
rradius 29.4242
rwrist -11.496
rhand -22.4363 12.9402
rfingers 7.12502
rthumb 3.98743 -17.0022
lclavicle 1.94809e-014 1.03368e-014
lhumerus -35.7857 6.44618 86.1678
lradius 31.8121
lwrist 2.08805
lhand -15.1509 20.6784
lfingers 7.12502
lthumb 11.0192 50.3692
rfemur -14.2993 -4.52908 26.1273
rtibia 27.1727
rfoot -10.7463 1.10106
rtoes 12.5181
lfemur -16.7974 5.90818 -13.9533
ltibia 46.0528
lfoot -17.3078 -1.69496
ltoes -24.3502
3177
root 31.009 17.9331 -6.99072 1080.59 -166.267 -354.711
lowerback 7.49396 0.176555 5.39453
upperback 3.18768 0.27071 3.66727
thorax -0.87764 -0.0126264 0.739809
lowerneck -12.9901 1.78464 -9.67104
upperneck 38.8059 -0.0967715 3.78649
head 15.9095 -2.28842 2.97923
rclavicle 2.48481e-014 -4.92986e-014
rhumerus -26.5243 -10.084 -75.781
rradius 29.9264
rwrist -11.8438
rhand -22.6565 12.626
rfingers 7.12502
rthumb 3.77483 -17.3203
lclavicle 2.48481e-014 -4.92986e-014
lhumerus -35.8407 5.92219 86.3637
lradius 32.1078
lwrist 2.82747
lhand -16.6636 20.3885
lfingers 7.12502
lthumb 9.55991 50.1516
rfemur -14.4806 -4.50796 26.2092
rtibia 27.6462
rfoot -11.0304 0.937334
rtoes 11.2858
lfemur -16.9879 6.57759 -14.1803
ltibia 44.6679
lfoot -17.834 -1.60833
ltoes -22.6395
3178
root 31.0036 17.9237 -7.03195 1080.84 -166.199 -354.919
lowerback 7.46114 0.275485 5.31191
upperback 3.05996 0.422077 3.56055
thorax -0.989146 0.0687652 0.663092
lowerneck -12.7938 1.85722 -9.479
upperneck 38.8243 -0.0268957 3.64923
head 15.865 -2.25457 2.89425
rclavicle 2.98177e-015 -6.67916e-014
rhumerus -26.53 -10.0283 -75.7168
rradius 30.4495
rwrist -11.8604
rhand -22.2997 12.3351
rfingers 7.12502
rthumb 4.11936 -17.6048
lclavicle 2.98177e-015 -6.67916e-014
lhumerus -35.9775 5.32556 86.5883
lradius 32.5461
lwrist 3.37129
lhand -17.1809 20.1468
lfingers 7.12502
lthumb 9.0608 49.9322
rfemur -14.738 -4.40059 26.0077
rtibia 28.0359
rfoot -11.342 0.712515
rtoes 10.9032
lfemur -17.3293 7.04922 -14.7415
ltibia 43.2401
lfoot -18.2682 -1.44918
ltoes -19.5953
3179
root 30.995 17.9161 -7.07499 1080.99 -166.075 -354.877
lowerback 7.35592 0.323323 5.47142
upperback 2.98602 0.499378 3.54009
thorax -1.00309 0.110349 0.546971
lowerneck -12.7766 1.90773 -9.24874
upperneck 39.0422 0.0318686 3.36869
head 15.9714 -2.25761 2.73986
rclavicle 6.55989e-015 2.54444e-014
rhumerus -26.2964 -9.83181 -75.6312
rradius 30.6614
rwrist -11.7655
rhand -21.799 12.1148
rfingers 7.12502
rthumb 4.60288 -17.8152
lclavicle 6.55989e-015 2.54444e-014
lhumerus -36.1059 4.9741 86.7382
lradius 33.1645
lwrist 3.67042
lhand -16.5076 20.5835
lfingers 7.12502
lthumb 9.71044 50.3397
rfemur -14.9171 -4.45809 26.0818
rtibia 28.3877
rfoot -11.7175 0.526955
rtoes 9.04998
lfemur -17.5508 7.47061 -15.051
ltibia 41.7766
lfoot -18.4983 -1.03759
ltoes -18.386
3180
root 30.9873 17.9132 -7.1282 1081.05 -165.889 -354.83
lowerback 7.1511 0.30817 5.55425
upperback 2.97412 0.471916 3.5373
thorax -0.90154 0.10056 0.50045
lowerneck -12.8793 1.94612 -9.03464
upperneck 39.4111 0.042183 3.11206
head 16.1916 -2.29594 2.59038
rclavicle -7.95139e-015 -5.88403e-014
rhumerus -25.9247 -9.31531 -75.7386
rradius 30.8215
rwrist -11.9198
rhand -22.0352 11.7877
rfingers 7.12502
rthumb 4.37481 -18.1471
lclavicle -7.95139e-015 -5.88403e-014
lhumerus -36.2154 4.99397 86.6279
lradius 33.4365
lwrist 3.47958
lhand -15.7432 20.3254
lfingers 7.12502
lthumb 10.4479 50.0458
rfemur -14.9081 -4.64627 26.1388
rtibia 28.7136
rfoot -11.9512 0.452822
rtoes 8.91216
lfemur -17.5657 7.87877 -15.3032
ltibia 40.3017
lfoot -18.5741 -0.630909
ltoes -15.3985
3181
root 30.9808 17.9073 -7.1798 1081.16 -165.726 -354.914
lowerback 6.87579 0.290466 5.44652
upperback 3.03298 0.416631 3.54416
thorax -0.691079 0.0776997 0.571985
lowerneck -13.0669 1.99427 -8.97845
upperneck 39.7122 0.131895 2.92623
head 16.3927 -2.30336 2.51408
rclavicle 1.19271e-014 -3.73715e-014
rhumerus -25.5483 -8.80819 -75.8387
rradius 31.1451
rwrist -12.023
rhand -22.331 11.7343
rfingers 7.12502
rthumb 4.08917 -18.2062
lclavicle 1.19271e-014 -3.73715e-014
lhumerus -35.9877 5.27444 86.5754
lradius 33.3714
lwrist 3.32664
lhand -16.487 19.6424
lfingers 7.12502
lthumb 9.73036 49.3976
rfemur -14.9073 -4.72419 26.0384
rtibia 28.9981
rfoot -12.1289 0.405012
rtoes 10.3213
lfemur -17.6059 8.34212 -15.6867
ltibia 38.8742
lfoot -18.6009 0.0226401
ltoes -12.9824
3182
root 30.9754 17.8906 -7.2225 1081.3 -165.581 -355.075
lowerback 6.61769 0.303594 5.28236
upperback 3.15267 0.394009 3.54557
thorax -0.426647 0.0705457 0.66677
lowerneck -13.3366 2.0381 -8.99156
upperneck 39.8835 0.296015 2.76969
head 16.541 -2.26484 2.47843
rclavicle -2.20651e-014 -7.95139e-016
rhumerus -25.0484 -8.03795 -75.9619
rradius 31.4695
rwrist -12.8432
rhand -22.7972 11.7422
rfingers 7.12502
rthumb 3.63897 -18.2065
lclavicle -2.20651e-014 -7.95139e-016
lhumerus -35.5939 5.36029 86.734
lradius 33.3948
lwrist 3.73659
lhand -17.8999 19.5451
lfingers 7.12502
lthumb 8.36693 49.3594
rfemur -15.0231 -4.88953 25.8712
rtibia 29.2653
rfoot -12.4993 0.454358
rtoes 10.2534
lfemur -17.6336 8.84873 -16.1719
ltibia 37.5258
lfoot -18.3369 0.753301
ltoes -11.9436
